{
  "accessors": [
    {
      "bufferView": 2,
      "componentType": 5126,
      "count": 2087,
      "max": [
        6.746320724487305,
        1.9643590450286865,
        87.23016357421875
      ],
      "min": [
        -6.731858730316162,
        -0.7339987754821777,
        -1.1474370467112749e-06
      ],
      "type": "VEC3"
    },
    {
      "bufferView": 2,
      "byteOffset": 25044,
      "componentType": 5126,
      "count": 2087,
      "max": [
        1.0,
        1.0,
        1.0
      ],
      "min": [
        -1.0,
        -1.0,
        -1.0
      ],
      "type": "VEC3"
    },
    {
      "bufferView": 3,
      "componentType": 5126,
      "count": 2087,
      "max": [
        1.0,
        1.0,
        1.0,
        1.0
      ],
      "min": [
        -1.0,
        -1.0,
        -1.0,
        -1.0
      ],
      "type": "VEC4"
    },
    {
      "bufferView": 1,
      "componentType": 5126,
      "count": 2087,
      "max": [
        0.9908781051635742,
        3.9969992637634277
      ],
      "min": [
        0.00878170132637024,
        0.0006508231163024902
      ],
      "type": "VEC2"
    },
    {
      "bufferView": 1,
      "byteOffset": 16696,
      "componentType": 5126,
      "count": 2087,
      "max": [
        0.9908781051635742,
        3.9969992637634277
      ],
      "min": [
        0.00878170132637024,
        0.0006508231163024902
      ],
      "type": "VEC2"
    },
    {
      "bufferView": 0,
      "componentType": 5125,
      "count": 7836,
      "type": "SCALAR"
    }
  ],
  "asset": {
    "extras": {
      "author": "niver_mk (https://sketchfab.com/niver_mk)",
      "license": "CC-BY-4.0 (http://creativecommons.org/licenses/by/4.0/)",
      "source": "https://sketchfab.com/3d-models/ladder-adf229c426194740ab0ec9cdb00262b4",
      "title": "Ladder"
    },
    "generator": "Sketchfab-12.68.0",
    "version": "2.0"
  },
  "bufferViews": [
    {
      "buffer": 0,
      "byteLength": 31344,
      "name": "floatBufferViews",
      "target": 34963
    },
    {
      "buffer": 0,
      "byteLength": 33392,
      "byteOffset": 31344,
      "byteStride": 8,
      "name": "floatBufferViews",
      "target": 34962
    },
    {
      "buffer": 0,
      "byteLength": 50088,
      "byteOffset": 64736,
      "byteStride": 12,
      "name": "floatBufferViews",
      "target": 34962
    },
    {
      "buffer": 0,
      "byteLength": 33392,
      "byteOffset": 114824,
      "byteStride": 16,
      "name": "floatBufferViews",
      "target": 34962
    }
  ],
  "buffers": [
    {
      "byteLength": 148216,
      "uri": "scene.bin"
    }
  ],
  "images": [
    {
      "uri": "textures/ladder_material_baseColor.png"
    },
    {
      "uri": "textures/ladder_material_metallicRoughness.png"
    },
    {
      "uri": "textures/ladder_material_normal.png"
    }
  ],
  "materials": [
    {
      "doubleSided": true,
      "name": "ladder_material",
      "normalTexture": {
        "index": 2
      },
      "occlusionTexture": {
        "index": 1
      },
      "pbrMetallicRoughness": {
        "baseColorTexture": {
          "index": 0
        },
        "metallicRoughnessTexture": {
          "index": 1
        }
      }
    }
  ],
  "meshes": [
    {
      "name": "ladder_ladder_material_0",
      "primitives": [
        {
          "attributes": {
            "NORMAL": 1,
            "POSITION": 0,
            "TANGENT": 2,
            "TEXCOORD_0": 3,
            "TEXCOORD_1": 4
          },
          "indices": 5,
          "material": 0,
          "mode": 4
        }
      ]
    }
  ],
  "nodes": [
    {
      "children": [
        1
      ],
      "matrix": [
        0.5382214188575745,
        -0.5634203553199769,
        0.6267975568771361,
        0.0,
        0.35798710584640503,
        -0.5204519629478452,
        -0.7752257585525514,
        0.0,
        0.7629960179328918,
        0.6416285634040833,
        -0.07842119783163057,
        0.0,
        -167.5740509033203,
        79.65276336669922,
        16.52181243896486,
        1.0
      ],
      "name": "Sketchfab_model"
    },
    {
      "children": [
        2
      ],
      "matrix": [
        1.0,
        0.0,
        0.0,
        0.0,
        0.0,
        0.0,
        1.0,
        0.0,
        0.0,
        -1.0,
        0.0,
        0.0,
        0.0,
        0.0,
        0.0,
        1.0
      ],
      "name": "ladder.FBX"
    },
    {
      "children": [
        3
      ],
      "name": "RootNode"
    },
    {
      "children": [
        4
      ],
      "matrix": [
        5.0,
        0.0,
        0.0,
        0.0,
        -0.0,
        -8.146033969591571e-07,
        -4.999999999999934,
        0.0,
        0.0,
        4.999999999999934,
        -8.146033969591571e-07,
        0.0,
        -0.213962584733963,
        0.0,
        0.0,
        1.0
      ],
      "name": "ladder"
    },
    {
      "mesh": 0,
      "name": "ladder_ladder_material_0"
    }
  ],
  "samplers": [
    {
      "magFilter": 9729,
      "minFilter": 9987,
      "wrapS": 10497,
      "wrapT": 10497
    }
  ],
  "scene": 0,
  "scenes": [
    {
      "name": "Sketchfab_Scene",
      "nodes": [
        0
      ]
    }
  ],
  "textures": [
    {
      "sampler": 0,
      "source": 0
    },
    {
      "sampler": 0,
      "source": 1
    },
    {
      "sampler": 0,
      "source": 2
    }
  ]
}
